<svg width="20" height="20" viewBox="0 0 20 20" fill="none" xmlns="http://www.w3.org/2000/svg">
<g clip-path="url(#clip0_63_593)">
<path d="M17.5847 2.23745C16.0038 0.687523 13.4479 -0.063475 9.98665 0.00419674C6.49662 0.0728377 4.16371 0.685408 2.64489 1.93205C1.17637 3.13727 0.492432 4.90088 0.492432 7.48219V10.1166C0.492432 13.164 2.12537 16.5142 5.24628 17.0211C5.60658 17.08 5.946 16.8351 6.00451 16.4747C6.06302 16.1145 5.81841 15.775 5.45811 15.7165C3.09127 15.332 1.81415 12.5444 1.81415 10.1166V7.48219C1.81415 3.78086 3.18564 1.45984 10.0126 1.32556C13.1076 1.26423 15.3414 1.88905 16.6593 3.18116C17.6863 4.18821 18.1855 5.59505 18.1855 7.48219V10.1166C18.1855 14.1059 16.3949 15.8655 11.8024 16.3836H8.5459C8.37064 16.3836 8.20252 16.4532 8.07863 16.5772L5.78405 18.8717C5.52596 19.1298 5.52596 19.5483 5.78405 19.8064C5.91304 19.9354 6.08222 20 6.25132 20C6.42041 20 6.58959 19.9355 6.71859 19.8064L8.81967 17.7053H11.8393C11.8637 17.7053 11.8881 17.704 11.9123 17.7012C14.5406 17.4093 16.3404 16.7253 17.5762 15.5484C18.8756 14.311 19.5073 12.5342 19.5073 10.1165V7.48219C19.5073 5.25299 18.8605 3.48841 17.5847 2.23745Z" fill="white"/>
<path d="M10.4124 4.31577C10.4125 4.31577 10.4125 4.31577 10.4127 4.31577C11.4775 4.31577 12.4787 4.73052 13.2317 5.48355C13.9848 6.23666 14.3996 7.23799 14.3995 8.30303C14.3995 8.668 14.6953 8.96388 15.0603 8.96388C15.0603 8.96388 15.0603 8.96388 15.0603 8.96388C15.4253 8.96388 15.7212 8.66809 15.7212 8.30312C15.7213 6.885 15.1691 5.55175 14.1663 4.54901C13.1637 3.54626 11.8307 2.99414 10.4127 2.99414C10.4126 2.99414 10.4123 2.99414 10.4122 2.99414C10.0473 2.99414 9.75146 3.29003 9.75146 3.655C9.75155 4.01988 10.0474 4.31577 10.4124 4.31577Z" fill="white"/>
<path d="M10.4122 6.64007C11.3293 6.64025 12.0756 7.3864 12.0757 8.30341C12.0757 8.66837 12.3715 8.96426 12.7366 8.96417C13.1017 8.96417 13.3975 8.6682 13.3974 8.30323C13.3971 6.65761 12.0581 5.31862 10.4124 5.31836H10.4123C10.0474 5.31836 9.75155 5.61416 9.75146 5.97913C9.75146 6.3441 10.0473 6.64007 10.4122 6.64007Z" fill="white"/>
<path d="M7.449 7.77206C7.14774 7.97808 7.07046 8.3893 7.27638 8.69057C7.48231 8.99183 7.89362 9.06902 8.19489 8.8631C8.43182 8.70114 8.98677 8.32172 8.94782 7.56323C8.92315 7.10927 8.51368 6.4611 8.17453 5.99727C7.67845 5.31861 7.25092 4.90985 6.90648 4.78314C6.58486 4.66339 6.24853 4.66084 5.90612 4.77574C5.19689 5.0147 4.68195 5.44655 4.41708 6.02458C4.15917 6.58728 4.16489 7.23395 4.43373 7.89507C5.06868 9.45276 5.95758 10.8165 7.08165 11.9542C8.21348 13.0723 9.57713 13.9612 11.1354 14.5965C11.4726 14.7337 11.8062 14.8023 12.1269 14.8023C12.4344 14.8023 12.73 14.7393 13.0055 14.613C13.5835 14.348 14.0153 13.8332 14.2545 13.1231C14.3691 12.7814 14.3665 12.4453 14.2477 12.1259C14.1201 11.779 13.7113 11.3515 13.0327 10.8554C12.5688 10.5163 11.9206 10.1068 11.4649 10.0821C10.708 10.044 10.3289 10.598 10.167 10.8349C9.96096 11.1362 10.0381 11.5474 10.3393 11.7535C10.6407 11.9596 11.0518 11.8824 11.2579 11.5812C11.3298 11.476 11.3709 11.4283 11.3944 11.4074C11.7654 11.5263 12.8232 12.3034 13.0136 12.6013C13.0183 12.6203 13.0193 12.6493 13.0017 12.7021C12.9183 12.9496 12.7558 13.2736 12.4549 13.4116C12.173 13.5406 11.8527 13.4614 11.634 13.3725C10.2376 12.8032 9.01858 12.0097 8.01619 11.0196C7.02041 10.0117 6.22694 8.7926 5.65799 7.39679C5.56882 7.17756 5.4896 6.85709 5.61869 6.57547C5.75659 6.27456 6.08067 6.1119 6.32739 6.02872C6.38008 6.0111 6.40907 6.01207 6.42916 6.01692C6.72708 6.20768 7.50381 7.26488 7.62276 7.63593C7.60179 7.6591 7.55412 7.70025 7.449 7.77206Z" fill="white"/>
</g>
<defs>
<clipPath id="clip0_63_593">
<rect width="20" height="20" fill="white"/>
</clipPath>
</defs>
</svg>
