<svg width="20" height="20" viewBox="0 0 20 20" fill="none" xmlns="http://www.w3.org/2000/svg">
<g clip-path="url(#clip0_63_586)">
<path d="M9.99957 0C4.59501 0 0.198242 4.39694 0.198242 9.80142C0.198242 11.9166 1.05677 13.8158 1.42596 14.5342C1.59785 14.8688 2.00854 15.0005 2.34296 14.8287C2.67747 14.6568 2.80931 14.2462 2.63743 13.9117C2.31363 13.2815 1.56035 11.6193 1.56035 9.80133C1.56026 5.14796 5.34611 1.36201 9.99957 1.36201C14.6535 1.36201 18.4396 5.14796 18.4396 9.80142C18.4396 14.4551 14.6535 18.241 9.99957 18.241C8.17956 18.241 6.73337 17.6108 6.19601 17.3398C6.03665 17.2594 5.85205 17.2448 5.68208 17.2992L1.39246 18.67C1.03425 18.7845 0.836573 19.1677 0.951073 19.526C1.04351 19.8154 1.31137 19.9999 1.59957 19.9999C1.66831 19.9999 1.73814 19.9895 1.80705 19.9674L5.8378 18.6793C6.68107 19.0707 8.1653 19.603 9.99957 19.603C15.4044 19.603 19.8016 15.2061 19.8016 9.80142C19.8016 4.39694 15.4044 0 9.99957 0Z" fill="white"/>
<path d="M8.06727 8.13021C7.76899 8.3593 7.71297 8.78679 7.94197 9.08516C8.17106 9.38344 8.59846 9.43956 8.89692 9.21047C9.10567 9.05011 9.66019 8.62426 9.57902 7.86253C9.52899 7.4097 9.08715 6.78835 8.72531 6.34697C8.19585 5.70101 7.74765 5.31846 7.39571 5.21077C7.06592 5.10853 6.72796 5.1247 6.39091 5.2589C5.69755 5.53602 5.20822 5.99511 4.97577 6.58659C4.74941 7.16263 4.79054 7.80723 5.095 8.45137C5.80569 9.95158 6.75556 11.2472 7.91827 12.3025C7.92281 12.3068 7.92744 12.311 7.93207 12.3151C9.1113 13.3575 10.5065 14.1607 12.0794 14.7026C12.3779 14.8051 12.6708 14.8562 12.9521 14.8562C13.3055 14.8562 13.6406 14.7756 13.9455 14.6149C14.5076 14.3185 14.9098 13.7816 15.109 13.0608C15.2049 12.7114 15.1834 12.374 15.0464 12.0598C14.8994 11.7198 14.4698 11.3167 13.7694 10.8619C13.291 10.5511 12.6252 10.1809 12.1677 10.1809C12.1674 10.1809 12.167 10.1809 12.1667 10.1809C11.4034 10.1839 11.041 10.7821 10.9046 11.0073C10.7098 11.329 10.8125 11.7478 11.1343 11.9427C11.4558 12.1375 11.8746 12.0348 12.0696 11.713C12.1234 11.624 12.1576 11.5768 12.179 11.5521C12.5636 11.6638 13.5925 12.3368 13.8033 12.62C13.8068 12.6351 13.8073 12.6579 13.7959 12.6994C13.7288 12.9423 13.59 13.2627 13.3102 13.4102C13.0488 13.5478 12.7371 13.4886 12.5223 13.4148C11.1228 12.9327 9.88429 12.2215 8.84099 11.3011C8.84071 11.3008 8.84035 11.3005 8.84008 11.3002C7.80704 10.3642 6.96114 9.20965 6.32598 7.86897C6.22874 7.66304 6.1353 7.35985 6.24336 7.085C6.35904 6.79062 6.66222 6.61737 6.89558 6.52412C6.93562 6.50814 6.95823 6.50569 6.97467 6.50787C7.27958 6.68629 8.06146 7.63398 8.21501 8.00399C8.19285 8.02788 8.14963 8.06692 8.06727 8.13021Z" fill="white"/>
</g>
<defs>
<clipPath id="clip0_63_586">
<rect width="20" height="20" fill="white"/>
</clipPath>
</defs>
</svg>
