<svg width="12" height="12" viewBox="0 0 12 12" fill="none" xmlns="http://www.w3.org/2000/svg">
<g clip-path="url(#clip0_80_106)">
<path d="M5.49986 11.4918C2.46745 11.4918 0 9.02445 0 5.99205C0 2.95964 2.46745 0.492188 5.49986 0.492188C6.55433 0.492188 7.58024 0.792654 8.46672 1.36164C8.64075 1.47369 8.69174 1.70568 8.57969 1.88018C8.46727 2.05467 8.23573 2.10511 8.06124 1.99315C7.29625 1.50162 6.41032 1.24216 5.49986 1.24216C2.88089 1.24216 0.749977 3.37308 0.749977 5.99205C0.749977 8.61092 2.88089 10.7418 5.49986 10.7418C8.11873 10.7418 10.2496 8.61092 10.2496 5.99205C10.2496 5.8355 10.2421 5.6805 10.2277 5.52807C10.2077 5.32154 10.3587 5.13853 10.5647 5.11857C10.7717 5.09953 10.9541 5.24958 10.9742 5.45556C10.9911 5.63207 10.9996 5.81105 10.9996 5.99205C10.9996 9.02445 8.53227 11.4918 5.49986 11.4918Z" fill="#01C839"/>
<path d="M6.12473 7.24282C6.02879 7.24282 5.93275 7.20629 5.85979 7.13287L3.60986 4.88294C3.46338 4.73636 3.46338 4.49888 3.60986 4.3524C3.75634 4.20592 3.99382 4.20592 4.1403 4.3524L6.12528 6.33739L11.3596 1.10302C11.5061 0.956544 11.7436 0.956544 11.8901 1.10302C12.0366 1.2495 12.0366 1.48698 11.8901 1.63346L6.39023 7.13332C6.31671 7.20629 6.22077 7.24282 6.12473 7.24282Z" fill="#01C839"/>
</g>
<defs>
<clipPath id="clip0_80_106">
<rect width="12" height="12" fill="white"/>
</clipPath>
</defs>
</svg>
