<svg width="31" height="31" viewBox="0 0 31 31" fill="none" xmlns="http://www.w3.org/2000/svg">
<g clip-path="url(#clip0_63_475)">
<path d="M15.8051 30.9999C15.7025 30.9999 15.5998 30.9999 15.4965 30.9995C13.0665 31.0054 10.8213 30.9437 8.63786 30.8107C6.63603 30.6889 4.80875 29.9971 3.35326 28.8103C1.94885 27.6651 0.989799 26.1167 0.502823 24.2085C0.0789948 22.5473 0.0565262 20.9165 0.0350037 19.3392C0.0193939 18.2075 0.00331116 16.8665 0 15.5028C0.00331116 14.1334 0.0193939 12.7923 0.0350037 11.6606C0.0565262 10.0836 0.0789948 8.45283 0.502823 6.79134C0.989799 4.88317 1.94885 3.33472 3.35326 2.18954C4.80875 1.00272 6.63603 0.310926 8.6381 0.189122C10.8216 0.0564393 13.0672 -0.00552674 15.5024 0.000386054C17.933 -0.0048172 20.1775 0.0564393 22.361 0.189122C24.3628 0.310926 26.1901 1.00272 27.6456 2.18954C29.0502 3.33472 30.009 4.88317 30.496 6.79134C30.9198 8.4526 30.9423 10.0836 30.9638 11.6606C30.9794 12.7923 30.9957 14.1334 30.9988 15.4971C30.9957 16.8665 30.9794 18.2075 30.9638 19.3392C30.9548 20.0081 30.4023 20.5426 29.7366 20.5336C29.0677 20.5244 28.5332 19.9747 28.5422 19.3061C28.5575 18.181 28.5739 16.8488 28.5769 15.4971C28.5739 14.1511 28.5575 12.8188 28.5422 11.6938C28.5225 10.2579 28.5022 8.77307 28.1493 7.39019C27.7934 5.99524 27.1089 4.87702 26.1151 4.06649C25.0402 3.18974 23.7275 2.69851 22.2138 2.60651C20.0817 2.4769 17.8869 2.41706 15.5024 2.42203C13.1122 2.41635 10.9171 2.4769 8.78497 2.60651C7.2713 2.69851 5.9589 3.18974 4.88372 4.06626C3.8899 4.87678 3.20544 5.99501 2.84949 7.39019C2.49661 8.77307 2.47627 10.2579 2.45664 11.6938C2.44127 12.8188 2.42519 14.1511 2.42188 15.5028C2.42519 16.8488 2.44127 18.181 2.45664 19.3061C2.47627 20.742 2.49661 22.2268 2.84949 23.6097C3.20544 25.0046 3.8899 26.1228 4.88372 26.9334C5.9589 27.8101 7.2713 28.3014 8.78497 28.3934C10.9171 28.523 13.1127 28.5835 15.4967 28.5776C17.8871 28.5833 20.0817 28.523 22.2138 28.3934C23.7275 28.3014 25.0399 27.8101 26.1151 26.9334C26.831 26.3494 27.3904 25.6002 27.7775 24.7061C28.0434 24.0926 28.7562 23.8105 29.37 24.0763C29.9837 24.3421 30.2656 25.055 30 25.6687C29.4572 26.922 28.6652 27.979 27.6456 28.8103C26.1901 29.9974 24.3628 30.6889 22.361 30.8107C20.27 30.938 18.122 30.9999 15.8051 30.9999V30.9999ZM23.0071 15.4999C23.0071 11.3267 19.612 7.93156 15.4387 7.93156C11.2657 7.93156 7.87038 11.3267 7.87038 15.4999C7.87038 19.6732 11.2657 23.0683 15.4387 23.0683C19.612 23.0683 23.0071 19.6732 23.0071 15.4999ZM20.5852 15.4999C20.5852 18.3376 18.2766 20.6464 15.4387 20.6464C12.6011 20.6464 10.2923 18.3376 10.2923 15.4999C10.2923 12.6623 12.6011 10.3534 15.4387 10.3534C18.2766 10.3534 20.5852 12.6623 20.5852 15.4999ZM23.8548 5.50968C22.8517 5.50968 22.0384 6.32281 22.0384 7.32609C22.0384 8.32937 22.8517 9.1425 23.8548 9.1425C24.858 9.1425 25.6712 8.32937 25.6712 7.32609C25.6712 6.32281 24.858 5.50968 23.8548 5.50968Z" fill="#468ACC"/>
</g>
<defs>
<clipPath id="clip0_63_475">
<rect width="31" height="31" fill="white"/>
</clipPath>
</defs>
</svg>
