<svg width="22" height="22" viewBox="0 0 22 22" fill="none" xmlns="http://www.w3.org/2000/svg">
<g clip-path="url(#clip0_80_66)">
<path d="M11.1241 21.8181C11.0518 21.8181 10.9796 21.8181 10.9068 21.8178C9.19663 21.822 7.61643 21.7785 6.07968 21.685C4.67077 21.5992 3.3847 21.1124 2.36031 20.2771C1.37187 19.4711 0.696877 18.3812 0.354137 17.0383C0.0558417 15.869 0.040028 14.7213 0.0248801 13.6112C0.0138938 12.8147 0.00257457 11.8708 0.000244141 10.911C0.00257457 9.94724 0.0138938 9.00341 0.0248801 8.2069C0.040028 7.09695 0.0558417 5.94921 0.354137 4.77983C0.696877 3.43683 1.37187 2.34702 2.36031 1.54102C3.3847 0.705728 4.67077 0.218833 6.07984 0.133107C7.6166 0.0397227 9.19713 -0.00388978 10.911 0.00027171C12.6217 -0.0033904 14.2014 0.0397227 15.7382 0.133107C17.1471 0.218833 18.4331 0.705728 19.4575 1.54102C20.4461 2.34702 21.121 3.43683 21.4637 4.77983C21.762 5.94904 21.7778 7.09695 21.793 8.2069C21.8039 9.00341 21.8154 9.94724 21.8176 10.907C21.8154 11.8708 21.8039 12.8147 21.793 13.6112C21.7866 14.0819 21.3978 14.4581 20.9292 14.4518C20.4585 14.4453 20.0823 14.0585 20.0886 13.5879C20.0994 12.796 20.1109 11.8584 20.113 10.907C20.1109 9.95972 20.0994 9.02205 20.0886 8.2302C20.0748 7.21963 20.0604 6.17459 19.8121 5.2013C19.5616 4.21953 19.0798 3.4325 18.3804 2.86205C17.6238 2.24498 16.7 1.89924 15.6346 1.83449C14.134 1.74327 12.5892 1.70116 10.911 1.70465C9.22876 1.70066 7.68385 1.74327 6.18322 1.83449C5.11788 1.89924 4.19419 2.24498 3.43747 2.86188C2.738 3.43234 2.25627 4.21936 2.00575 5.2013C1.75739 6.17459 1.74308 7.21963 1.72926 8.2302C1.71844 9.02205 1.70712 9.95972 1.70479 10.911C1.70712 11.8584 1.71844 12.796 1.72926 13.5879C1.74308 14.5985 1.75739 15.6435 2.00575 16.6168C2.25627 17.5986 2.738 18.3856 3.43747 18.956C4.19419 19.5731 5.11788 19.9188 6.18322 19.9836C7.68385 20.0748 9.22909 20.1174 10.907 20.1133C12.5894 20.1173 14.134 20.0748 15.6346 19.9836C16.7 19.9188 17.6236 19.5731 18.3804 18.956C18.8842 18.545 19.2779 18.0177 19.5504 17.3885C19.7375 16.9567 20.2392 16.7581 20.6712 16.9452C21.1031 17.1323 21.3016 17.634 21.1146 18.066C20.7326 18.948 20.1751 19.692 19.4575 20.2771C18.4331 21.1125 17.1471 21.5992 15.7382 21.685C14.2665 21.7745 12.7547 21.8181 11.1241 21.8181ZM16.1929 10.909C16.1929 7.97186 13.8034 5.58233 10.8662 5.58233C7.92921 5.58233 5.53952 7.97186 5.53952 10.909C5.53952 13.8462 7.92921 16.2358 10.8662 16.2358C13.8034 16.2358 16.1929 13.8462 16.1929 10.909ZM14.4884 10.909C14.4884 12.9062 12.8636 14.5312 10.8662 14.5312C8.86904 14.5312 7.24406 12.9062 7.24406 10.909C7.24406 8.91186 8.86904 7.28688 10.8662 7.28688C12.8636 7.28688 14.4884 8.91186 14.4884 10.909ZM16.7895 3.87778C16.0836 3.87778 15.5111 4.45007 15.5111 5.15619C15.5111 5.86232 16.0836 6.4346 16.7895 6.4346C17.4956 6.4346 18.0679 5.86232 18.0679 5.15619C18.0679 4.45007 17.4956 3.87778 16.7895 3.87778Z" fill="white"/>
</g>
<defs>
<clipPath id="clip0_80_66">
<rect width="21.8182" height="21.8182" fill="white" transform="translate(0.000244141)"/>
</clipPath>
</defs>
</svg>
