<svg width="18" height="18" viewBox="0 0 18 18" fill="none" xmlns="http://www.w3.org/2000/svg">
<g clip-path="url(#clip0_63_66)">
<path d="M7.15283 10.4812C5.50403 8.83575 5.13174 7.19035 5.04775 6.53112C5.02428 6.34884 5.08714 6.16604 5.21781 6.03655L6.5521 4.70561C6.74837 4.50986 6.78321 4.20479 6.63609 3.96999L4.51165 0.678C4.34889 0.418008 4.0147 0.324174 3.73997 0.461328L0.329491 2.06423C0.107325 2.1734 -0.0233492 2.40896 0.00187526 2.6548C0.180575 4.34894 0.920687 8.51357 5.02184 12.6066C9.12299 16.6996 13.2956 17.4378 14.9942 17.6162C15.2405 17.6414 15.4766 17.5109 15.5859 17.2892L17.1922 13.8858C17.3291 13.6122 17.2357 13.2796 16.9762 13.1169L13.6774 10.9974C13.4423 10.8505 13.1366 10.885 12.9403 11.0806L11.6066 12.4122C11.4768 12.5426 11.2937 12.6053 11.111 12.5819C10.4504 12.4981 8.80163 12.1266 7.15283 10.4812Z" fill="white"/>
<path d="M13.7001 9.5951C13.3711 9.5951 13.1044 9.32896 13.1044 9.00066C13.1016 6.53958 11.1031 4.54517 8.63692 4.54239C8.30795 4.54239 8.04126 4.27625 8.04126 3.94795C8.04126 3.61965 8.30795 3.35352 8.63692 3.35352C11.7608 3.35696 14.2923 5.88326 14.2957 9.00066C14.2957 9.32896 14.029 9.5951 13.7001 9.5951Z" fill="white"/>
<path d="M16.6784 9.59463C16.3494 9.59463 16.0827 9.32849 16.0827 9.0002C16.0781 4.89837 12.7472 1.57432 8.63692 1.56973C8.30795 1.56973 8.04126 1.30359 8.04126 0.975296C8.04126 0.646998 8.30795 0.380859 8.63692 0.380859C13.4049 0.386101 17.2688 4.24204 17.2741 9.0002C17.2741 9.15785 17.2113 9.30905 17.0996 9.42053C16.9879 9.532 16.8364 9.59463 16.6784 9.59463Z" fill="white"/>
</g>
<defs>
<clipPath id="clip0_63_66">
<rect width="17.2743" height="17.2387" fill="white" transform="translate(0 0.380859)"/>
</clipPath>
</defs>
</svg>
