<svg width="24" height="24" viewBox="0 0 24 24" fill="none" xmlns="http://www.w3.org/2000/svg">
<g clip-path="url(#clip0_80_69)">
<path d="M21.1018 2.68494C19.2047 0.825027 16.1376 -0.07617 11.9841 0.00503608C7.7961 0.0874053 4.9966 0.82249 3.17401 2.31846C1.4118 3.76473 0.591064 5.88106 0.591064 8.97863V12.14C0.591064 15.7968 2.55058 19.817 6.29569 20.4253C6.72805 20.496 7.13535 20.2021 7.20555 19.7696C7.27576 19.3374 6.98224 18.93 6.54988 18.8598C3.70967 18.3984 2.17712 15.0532 2.17712 12.14V8.97863C2.17712 4.53703 3.82292 1.75181 12.0152 1.59067C15.7292 1.51708 18.4099 2.26686 19.9913 3.81739C21.2237 5.02586 21.8228 6.71405 21.8228 8.97863V12.14C21.8228 16.9271 19.6741 19.0386 14.1631 19.6603H10.2552C10.0449 19.6603 9.84317 19.7438 9.6945 19.8926L6.941 22.6461C6.6313 22.9558 6.6313 23.4579 6.941 23.7677C7.0958 23.9225 7.29881 24 7.50172 24C7.70463 24 7.90765 23.9226 8.06245 23.7677L10.5837 21.2464H14.2074C14.2365 21.2464 14.2658 21.2448 14.2949 21.2415C17.4488 20.8912 19.6086 20.0703 21.0916 18.6581C22.6509 17.1731 23.4089 15.0411 23.4089 12.1398V8.97863C23.4089 6.30358 22.6327 4.18609 21.1018 2.68494Z" fill="white"/>
<path d="M12.495 5.18068C12.4951 5.18068 12.4951 5.18068 12.4954 5.18068C13.7732 5.18068 14.9746 5.67838 15.8782 6.58201C16.7819 7.48575 17.2796 8.68735 17.2795 9.96539C17.2795 10.4034 17.6345 10.7584 18.0725 10.7584C18.0726 10.7584 18.0726 10.7584 18.0726 10.7584C18.5105 10.7584 18.8656 10.4035 18.8656 9.9655C18.8657 8.26376 18.203 6.66385 16.9998 5.46056C15.7966 4.25728 14.197 3.59473 12.4954 3.59473C12.4952 3.59473 12.4949 3.59473 12.4948 3.59473C12.0569 3.59473 11.7019 3.94979 11.7019 4.38776C11.702 4.82561 12.0571 5.18068 12.495 5.18068Z" fill="white"/>
<path d="M12.4948 7.96887C13.5953 7.96908 14.4908 8.86446 14.4909 9.96487C14.491 10.4028 14.846 10.7579 15.2841 10.7578C15.7221 10.7578 16.0771 10.4026 16.077 9.96466C16.0767 7.98991 14.4699 6.38313 12.495 6.38281H12.4949C12.057 6.38281 11.702 6.73777 11.7019 7.17574C11.7019 7.6137 12.0569 7.96887 12.4948 7.96887Z" fill="white"/>
<path d="M8.93894 9.32862C8.57743 9.57584 8.4847 10.0693 8.73181 10.4308C8.97891 10.7923 9.47249 10.885 9.83401 10.6379C10.1183 10.4435 10.7843 9.98821 10.7375 9.07803C10.7079 8.53327 10.2166 7.75547 9.80958 7.19887C9.21428 6.38448 8.70125 5.89397 8.28792 5.74192C7.90198 5.59822 7.49838 5.59515 7.08749 5.73303C6.23641 6.01979 5.61848 6.53801 5.30064 7.23165C4.99114 7.90688 4.99802 8.68289 5.32062 9.47623C6.08256 11.3455 7.14924 12.9819 8.49813 14.3472C9.85632 15.6889 11.4927 16.7556 13.3627 17.518C13.7673 17.6826 14.1676 17.765 14.5524 17.765C14.9214 17.765 15.2762 17.6893 15.6067 17.5377C16.3004 17.2198 16.8185 16.602 17.1055 15.7498C17.243 15.3399 17.2399 14.9365 17.0974 14.5532C16.9443 14.1369 16.4537 13.624 15.6394 13.0287C15.0827 12.6217 14.3049 12.1303 13.758 12.1006C12.8497 12.055 12.3949 12.7197 12.2005 13.004C11.9533 13.3656 12.0458 13.859 12.4073 14.1064C12.769 14.3537 13.2623 14.2611 13.5096 13.8995C13.5959 13.7734 13.6452 13.7161 13.6734 13.691C14.1186 13.8337 15.388 14.7663 15.6165 15.1237C15.6221 15.1465 15.6233 15.1813 15.6022 15.2446C15.5022 15.5416 15.3071 15.9304 14.946 16.096C14.6077 16.2508 14.2234 16.1559 13.9609 16.0492C12.2853 15.366 10.8224 14.4138 9.61957 13.2257C8.42464 12.0161 7.47248 10.5533 6.78973 8.87829C6.68273 8.61522 6.58767 8.23065 6.74257 7.89272C6.90805 7.53162 7.29695 7.33643 7.59302 7.23662C7.65625 7.21547 7.69104 7.21663 7.71514 7.22245C8.07264 7.45137 9.00471 8.72 9.14746 9.16526C9.12229 9.19307 9.06509 9.24245 8.93894 9.32862Z" fill="white"/>
</g>
<defs>
<clipPath id="clip0_80_69">
<rect width="24" height="24" fill="white"/>
</clipPath>
</defs>
</svg>
