<svg width="23" height="22" viewBox="0 0 23 22" fill="none" xmlns="http://www.w3.org/2000/svg">
<g clip-path="url(#clip0_80_62)">
<path d="M11.8178 0C5.92196 0 1.12549 4.79667 1.12549 10.6925C1.12549 13 2.06206 15.0718 2.46482 15.8555C2.65233 16.2206 3.10036 16.3642 3.46518 16.1768C3.8301 15.9893 3.97393 15.5413 3.78642 15.1764C3.43319 14.4889 2.61142 12.6755 2.61142 10.6924C2.61132 5.61596 6.74135 1.48583 11.8178 1.48583C16.8948 1.48583 21.0252 5.61596 21.0252 10.6925C21.0252 15.7692 16.8948 19.8993 11.8178 19.8993C9.83238 19.8993 8.25472 19.2118 7.66851 18.9161C7.49466 18.8284 7.29328 18.8125 7.10785 18.8719L2.42827 20.3673C2.03749 20.4922 1.82185 20.9102 1.94676 21.3011C2.0476 21.6168 2.33981 21.8181 2.65421 21.8181C2.7292 21.8181 2.80537 21.8067 2.88056 21.7826L7.27773 20.3774C8.19766 20.8044 9.81682 21.3851 11.8178 21.3851C17.714 21.3851 22.511 16.5884 22.511 10.6925C22.511 4.79667 17.714 0 11.8178 0Z" fill="white"/>
<path d="M9.7098 8.86941C9.3844 9.11932 9.32328 9.58568 9.5731 9.91118C9.82302 10.2366 10.2893 10.2978 10.6149 10.0479C10.8426 9.87294 11.4475 9.40837 11.359 8.57739C11.3044 8.0834 10.8224 7.40556 10.4277 6.92405C9.85006 6.21937 9.36112 5.80205 8.97718 5.68457C8.61741 5.57303 8.24873 5.59067 7.88103 5.73707C7.12465 6.03939 6.59083 6.54021 6.33725 7.18546C6.09031 7.81387 6.13518 8.51707 6.46731 9.21977C7.24262 10.8564 8.27884 12.2698 9.54725 13.421C9.5522 13.4257 9.55725 13.4302 9.5623 13.4348C10.8487 14.5719 12.3707 15.4481 14.0867 16.0393C14.4123 16.1511 14.7318 16.2069 15.0387 16.2069C15.4242 16.2069 15.7898 16.1189 16.1224 15.9436C16.7356 15.6202 17.1744 15.0345 17.3917 14.2482C17.4963 13.8671 17.4729 13.499 17.3234 13.1562C17.163 12.7853 16.6944 12.3456 15.9303 11.8494C15.4084 11.5104 14.6821 11.1065 14.1829 11.1065C14.1826 11.1065 14.1823 11.1065 14.1819 11.1065C13.3492 11.1098 12.9539 11.7623 12.8051 12.0081C12.5925 12.359 12.7046 12.8159 13.0556 13.0285C13.4064 13.241 13.8633 13.129 14.076 12.7779C14.1347 12.6809 14.172 12.6294 14.1953 12.6024C14.6149 12.7243 15.7373 13.4585 15.9673 13.7674C15.9711 13.7839 15.9716 13.8087 15.9592 13.854C15.886 14.119 15.7346 14.4685 15.4294 14.6294C15.1442 14.7796 14.8041 14.7149 14.5699 14.6344C13.0431 14.1085 11.692 13.3327 10.5538 12.3285C10.5536 12.3282 10.5532 12.3279 10.5529 12.3275C9.4259 11.3065 8.5031 10.047 7.81021 8.58442C7.70412 8.35977 7.60219 8.02902 7.72007 7.72918C7.84627 7.40804 8.17701 7.21904 8.43158 7.11731C8.47527 7.09988 8.49993 7.0972 8.51786 7.09958C8.85049 7.29422 9.70346 8.32807 9.87096 8.73172C9.84679 8.75777 9.79964 8.80037 9.7098 8.86941Z" fill="white"/>
</g>
<defs>
<clipPath id="clip0_80_62">
<rect width="21.8182" height="21.8182" fill="white" transform="translate(0.90918)"/>
</clipPath>
</defs>
</svg>
