<svg width="34" height="38" viewBox="0 0 34 38" fill="none" xmlns="http://www.w3.org/2000/svg">
<path fill-rule="evenodd" clip-rule="evenodd" d="M33.45 31.5917V35.3084C33.45 36.4234 32.7067 37.1667 31.5917 37.1667C30.4767 37.1667 29.7333 36.4234 29.7333 35.3084V31.5917C29.7333 28.4326 27.3175 26.0167 24.1583 26.0167H9.29167C6.1325 26.0167 3.71667 28.4326 3.71667 31.5917V35.3084C3.71667 36.4234 2.97333 37.1667 1.85833 37.1667C0.743333 37.1667 0 36.4234 0 35.3084V31.5917C0 26.3884 4.08833 22.3 9.29167 22.3H24.1583C29.3617 22.3 33.45 26.3884 33.45 31.5917ZM7.43335 9.29167C7.43335 4.08833 11.5217 0 16.725 0C21.9283 0 26.0167 4.08833 26.0167 9.29167C26.0167 14.495 21.9283 18.5833 16.725 18.5833C11.5217 18.5833 7.43335 14.495 7.43335 9.29167ZM11.15 9.29167C11.15 12.4508 13.5658 14.8667 16.725 14.8667C19.8842 14.8667 22.3 12.4508 22.3 9.29167C22.3 6.13251 19.8842 3.71667 16.725 3.71667C13.5658 3.71667 11.15 6.13251 11.15 9.29167Z" fill="#4C65AD"/>
</svg>
