<svg width="47" height="37" viewBox="0 0 47 37" fill="none" xmlns="http://www.w3.org/2000/svg">
<path d="M36.3324 28.6055C35.9434 28.6005 35.5717 28.4458 35.2965 28.1745C35.0214 27.9032 34.8646 27.5366 34.8595 27.1529C34.8647 24.053 33.621 21.078 31.402 18.8824C29.1829 16.6869 26.1704 15.4505 23.027 15.4454C19.8836 15.4402 16.8669 16.6667 14.6405 18.8551C12.4141 21.0434 11.1604 24.0143 11.1551 27.1142C11.1551 27.4994 11 27.8689 10.7237 28.1413C10.4475 28.4137 10.0729 28.5667 9.68221 28.5667C9.29157 28.5667 8.91692 28.4137 8.6407 28.1413C8.36447 27.8689 8.20928 27.4994 8.20928 27.1142C8.13682 25.153 8.46594 23.1976 9.17698 21.3647C9.88802 19.5318 10.9664 17.859 12.3477 16.4463C13.7289 15.0336 15.3848 13.91 17.2163 13.1425C19.0478 12.375 21.0173 11.9795 23.0073 11.9795C24.9973 11.9795 26.9669 12.375 28.7984 13.1425C30.6299 13.91 32.2857 15.0336 33.667 16.4463C35.0483 17.859 36.1266 19.5318 36.8377 21.3647C37.5487 23.1976 37.8778 25.153 37.8054 27.1142C37.8106 27.3082 37.7764 27.5012 37.7047 27.682C37.6331 27.8627 37.5254 28.0274 37.3881 28.1664C37.2508 28.3054 37.0866 28.4159 36.9053 28.4913C36.724 28.5667 36.5292 28.6055 36.3324 28.6055Z" fill="#4C65AD"/>
<path d="M37.7072 14.8162C37.5132 14.8205 37.3204 14.7848 37.1412 14.7115C36.962 14.6381 36.8002 14.5286 36.6664 14.3901C36.5274 14.2566 36.417 14.097 36.3416 13.9207C36.2661 13.7444 36.2273 13.555 36.2273 13.3636C36.2273 13.1723 36.2661 12.9829 36.3416 12.8066C36.417 12.6303 36.5274 12.4707 36.6664 12.3372L40.8495 8.19258C41.1287 7.936 41.498 7.79632 41.8796 7.80296C42.2612 7.8096 42.6253 7.96204 42.8951 8.22818C43.165 8.49431 43.3196 8.85335 43.3263 9.22965C43.333 9.60596 43.1914 9.97016 42.9312 10.2455L38.7481 14.3901C38.6121 14.5259 38.45 14.6335 38.2713 14.7067C38.0925 14.7799 37.9008 14.8171 37.7072 14.8162Z" fill="#4C65AD"/>
<path d="M8.32708 14.816C8.13356 14.8169 7.9418 14.7796 7.76307 14.7065C7.58433 14.6333 7.42221 14.5257 7.28622 14.3899L3.10313 10.2453C2.96417 10.1118 2.85373 9.95216 2.77832 9.77586C2.70291 9.59957 2.66406 9.41018 2.66406 9.21884C2.66406 9.02751 2.70291 8.83811 2.77832 8.66182C2.85373 8.48552 2.96417 8.32591 3.10313 8.19238C3.3793 7.92036 3.75367 7.76758 4.14399 7.76758C4.53432 7.76758 4.90868 7.92036 5.18486 8.19238L9.36795 12.337C9.64378 12.6093 9.79871 12.9785 9.79871 13.3634C9.79871 13.7483 9.64378 14.1175 9.36795 14.3899C9.23264 14.5266 9.07064 14.6348 8.89175 14.708C8.71285 14.7812 8.52077 14.818 8.32708 14.816Z" fill="#4C65AD"/>
<path d="M23.0176 8.59918C22.6356 8.58903 22.2731 8.4309 22.0084 8.15904C21.7438 7.88717 21.5984 7.52345 21.6037 7.14662V1.45256C21.6037 1.06732 21.7588 0.697855 22.0351 0.425446C22.3113 0.153038 22.6859 0 23.0765 0C23.4672 0 23.8418 0.153038 24.118 0.425446C24.3943 0.697855 24.5494 1.06732 24.5494 1.45256V7.14662C24.5496 7.34236 24.5096 7.53611 24.432 7.71624C24.3543 7.89637 24.2405 8.05916 24.0974 8.19483C23.9543 8.3305 23.7849 8.43626 23.5994 8.50574C23.4138 8.57523 23.216 8.60701 23.0176 8.59918Z" fill="#4C65AD"/>
<path d="M44.5611 28.606H1.47293C1.08229 28.606 0.70764 28.4529 0.431412 28.1804C0.155184 27.9079 0 27.5384 0 27.1531C0 26.7677 0.155184 26.3982 0.431412 26.1257C0.70764 25.8533 1.08229 25.7002 1.47293 25.7002H44.5611C44.9518 25.7002 45.3264 25.8533 45.6026 26.1257C45.8789 26.3982 46.0341 26.7677 46.0341 27.1531C46.0341 27.5384 45.8789 27.9079 45.6026 28.1804C45.3264 28.4529 44.9518 28.606 44.5611 28.606Z" fill="#4C65AD"/>
<path d="M37.7069 36.4886H8.24832C7.85767 36.4886 7.48303 36.3356 7.2068 36.0631C6.93057 35.7907 6.77539 35.4211 6.77539 35.0358C6.77539 34.6505 6.93057 34.281 7.2068 34.0085C7.48303 33.7361 7.85767 33.583 8.24832 33.583H37.7069C38.0975 33.583 38.4722 33.7361 38.7484 34.0085C39.0246 34.281 39.1798 34.6505 39.1798 35.0358C39.1798 35.4211 39.0246 35.7907 38.7484 36.0631C38.4722 36.3356 38.0975 36.4886 37.7069 36.4886Z" fill="#4C65AD"/>
</svg>
