<svg width="51" height="39" viewBox="0 0 51 39" fill="none" xmlns="http://www.w3.org/2000/svg">
<path d="M4.75483 38.7516C4.54861 38.7549 4.34389 38.7102 4.15256 38.6202C3.96123 38.5302 3.7871 38.3966 3.64029 38.2272C3.49348 38.0579 3.37691 37.8561 3.29736 37.6337C3.2178 37.4112 3.17684 37.1725 3.17686 36.9314C2.91207 28.8338 4.84125 20.8451 8.68924 14.105C11.7366 8.48039 16.2803 4.18201 21.6212 1.87103C26.9621 -0.439948 32.8046 -0.635532 38.2499 1.31437C45.6348 3.7741 50.9999 9.57909 50.9999 14.9167C51.0933 15.9082 50.9129 16.9086 50.4851 17.7716C50.0574 18.6346 49.4046 19.315 48.6224 19.7132C47.6897 20.0125 46.7089 20.0435 45.7636 19.8036C44.8184 19.5638 43.9369 19.0602 43.1942 18.3358C42.8028 19.0859 42.2114 19.6649 41.511 19.9838C40.4467 20.316 39.3286 20.3349 38.2566 20.0387C37.1846 19.7426 36.192 19.1406 35.3675 18.2866C34.9265 19.1166 34.2595 19.749 33.4739 20.0822C30.886 21.1399 27.5407 18.8277 25.7313 16.1466C23.5222 13.1949 19.9244 10.0956 15.8637 11.9158C10.3303 14.4248 6.31176 24.9279 6.31176 36.9314C6.30631 37.4122 6.14053 37.8714 5.84972 38.2114C5.55892 38.5514 5.16606 38.7452 4.75483 38.7516ZM18.6831 7.68509C20.522 7.89489 22.3065 8.53163 23.9323 9.55798C25.558 10.5843 26.9922 11.9797 28.1509 13.6623C28.6024 14.4985 29.2217 15.1933 29.955 15.6863C30.6883 16.1792 31.5134 16.4554 32.3588 16.491C32.7585 16.3188 32.8217 15.4333 32.8217 14.9167C32.8227 14.5477 32.9172 14.1872 33.0931 13.8808C33.2691 13.5744 33.5187 13.3357 33.8105 13.1949C34.1011 13.0561 34.4204 13.0218 34.7277 13.0963C35.035 13.1707 35.3164 13.3507 35.5358 13.6131C37.5135 16.0728 39.5333 16.8107 40.2486 16.4664C40.6274 16.2942 40.6694 15.2365 40.6694 14.9167C40.6694 14.5459 40.7649 14.1837 40.9436 13.8773C41.1223 13.5709 41.3758 13.3345 41.6711 13.1991C41.9664 13.0637 42.2897 13.0354 42.599 13.118C42.9082 13.2007 43.1889 13.3903 43.4046 13.6623C45.0878 15.8268 46.7709 16.4418 47.4021 16.122C47.7177 15.9744 47.7598 15.1873 47.7598 14.8675C47.7598 11.7683 43.7412 7.04556 37.24 4.8072C34.146 3.74955 30.8971 3.45922 27.7015 3.9548C24.506 4.45039 21.4342 5.72095 18.6831 7.68509Z" fill="#4C65AD"/>
<path d="M12.9183 38.7532C12.5034 38.7532 12.1052 38.5623 11.8099 38.2216C11.5146 37.8809 11.3459 37.418 11.3403 36.933C11.6626 29.8362 13.7382 23.0009 17.3156 17.2551C17.5636 16.8987 17.9152 16.6615 18.3033 16.5889C18.6914 16.5163 19.0888 16.6134 19.4195 16.8615C19.7326 17.1447 19.9416 17.5566 20.0041 18.0135C20.0667 18.4704 19.978 18.938 19.7562 19.3213C16.5802 24.472 14.7528 30.5906 14.4963 36.933C14.4907 37.418 14.3221 37.8809 14.0267 38.2216C13.7314 38.5623 13.3332 38.7532 12.9183 38.7532Z" fill="#4C65AD"/>
<path d="M29.2032 38.7527C28.7865 38.721 28.3969 38.4999 28.1177 38.1368C27.8386 37.7737 27.692 37.2973 27.7094 36.8095C28.0464 32.7835 29.1513 28.8972 30.9427 25.4364C32.7342 21.9756 35.1665 19.0284 38.0609 16.8118C38.2343 16.6526 38.4343 16.5377 38.6481 16.4744C38.8619 16.4111 39.0846 16.4009 39.3019 16.4445C39.5193 16.488 39.7264 16.5843 39.9099 16.7272C40.0934 16.8701 40.2493 17.0563 40.3675 17.2739C40.4857 17.4916 40.5636 17.7357 40.5961 17.9907C40.6286 18.2457 40.6151 18.5058 40.5563 18.7543C40.4976 19.0027 40.3949 19.234 40.255 19.4333C40.1151 19.6325 39.9411 19.7953 39.744 19.9111C37.2623 21.8289 35.1776 24.3696 33.6417 27.3481C32.1058 30.3266 31.1573 33.6681 30.8653 37.1292C30.8227 37.5991 30.6255 38.0312 30.3153 38.3342C30.0051 38.6372 29.6063 38.7872 29.2032 38.7527Z" fill="#4C65AD"/>
<path d="M21.3551 38.753C20.9402 38.7531 20.542 38.5621 20.2467 38.2214C19.9513 37.8808 19.7826 37.4178 19.7771 36.9328C20.0489 31.9057 21.3865 27.0367 23.6694 22.7647C23.7699 22.5394 23.909 22.3408 24.0782 22.1813C24.2474 22.0218 24.4429 21.9048 24.6525 21.8378C24.8621 21.7708 25.0814 21.7551 25.2964 21.7918C25.5115 21.8284 25.7177 21.9166 25.9023 22.0508C26.0868 22.185 26.2456 22.3623 26.3688 22.5717C26.492 22.781 26.5769 23.0178 26.6181 23.2673C26.6593 23.5167 26.656 23.7735 26.6084 24.0214C26.5608 24.2693 26.4699 24.503 26.3415 24.7079C24.3603 28.419 23.1898 32.6424 22.933 37.0066C22.9115 37.4787 22.7358 37.923 22.4421 38.248C22.1485 38.5729 21.7594 38.7537 21.3551 38.753Z" fill="#4C65AD"/>
<path d="M38.8181 38.7551H1.57797C1.15947 38.7551 0.758104 38.5607 0.462177 38.2145C0.16625 37.8684 0 37.3989 0 36.9093C0 36.4198 0.16625 35.9503 0.462177 35.6041C0.758104 35.2579 1.15947 35.0635 1.57797 35.0635H38.8181C39.2366 35.0635 39.6379 35.2579 39.9339 35.6041C40.2298 35.9503 40.396 36.4198 40.396 36.9093C40.396 37.3989 40.2298 37.8684 39.9339 38.2145C39.6379 38.5607 39.2366 38.7551 38.8181 38.7551Z" fill="#4C65AD"/>
</svg>
