<svg width="36" height="40" viewBox="0 0 36 40" fill="none" xmlns="http://www.w3.org/2000/svg">
<path d="M4.36537 28.6592C4.26272 28.6756 4.1583 28.6756 4.05565 28.6592C3.89841 28.6184 3.75079 28.5443 3.62185 28.4417C3.49292 28.339 3.38537 28.2099 3.30581 28.0622C1.02744 23.941 0.40695 19.0415 1.58085 14.4415C2.75474 9.84155 5.62686 5.91796 9.56538 3.53388C13.5039 1.1498 18.1862 0.500529 22.5822 1.72889C26.9782 2.95725 30.7278 5.96263 33.0062 10.0839C33.088 10.229 33.1417 10.3895 33.164 10.5564C33.1864 10.7232 33.1771 10.8931 33.1366 11.0561C33.0443 11.3774 32.8409 11.6511 32.566 11.8237L4.98481 28.4886C4.79367 28.5948 4.58166 28.6531 4.36537 28.6592ZM18.1397 3.67034C15.6615 3.66464 13.2224 4.31589 11.0498 5.56335C8.87725 6.81081 7.04207 8.61381 5.71551 10.8041C4.38895 12.9944 3.61424 15.5007 3.46366 18.089C3.31308 20.6774 3.79154 23.2635 4.8544 25.606L30.235 10.2544C28.8787 8.21455 27.0695 6.54968 24.9627 5.40284C22.8559 4.256 20.5145 3.66147 18.1397 3.67034Z" fill="#4C65AD" stroke="#4C65AD"/>
<path d="M28.3442 38.7915C28.129 38.7891 27.9181 38.728 27.7323 38.6143C27.5465 38.5007 27.3922 38.3383 27.2846 38.1433L17.0966 19.6872C16.9344 19.3932 16.8906 19.0438 16.9746 18.7159C17.0587 18.388 17.2638 18.1085 17.5448 17.9389C17.8258 17.7692 18.1597 17.7233 18.4731 17.8113C18.7864 17.8993 19.0536 18.1139 19.2157 18.4079L29.4038 36.9322C29.5527 37.2232 29.5884 37.5632 29.5033 37.8811C29.4182 38.199 29.219 38.4702 28.9473 38.638C28.7613 38.7398 28.5542 38.7925 28.3442 38.7915Z" fill="#4C65AD" stroke="#4C65AD"/>
<path d="M33.2999 38.7927H12.6791C12.3549 38.7927 12.0439 38.6579 11.8146 38.4178C11.5854 38.1777 11.4565 37.8521 11.4565 37.5126C11.4565 37.1731 11.5854 36.8474 11.8146 36.6074C12.0439 36.3673 12.3549 36.2324 12.6791 36.2324H33.2999C33.6241 36.2324 33.9351 36.3673 34.1644 36.6074C34.3937 36.8474 34.5225 37.1731 34.5225 37.5126C34.5225 37.8521 34.3937 38.1777 34.1644 38.4178C33.9351 38.6579 33.6241 38.7927 33.2999 38.7927Z" fill="#4C65AD" stroke="#4C65AD"/>
<path d="M23.6333 17.0115C23.4293 17.0218 23.2261 16.9771 23.0434 16.8815C22.8607 16.7859 22.7046 16.6427 22.5901 16.4656C21.2489 13.9065 19.4361 11.6511 17.2564 9.82998C15.0767 8.00886 12.5735 6.65817 9.89157 5.85609C9.73113 5.8187 9.57955 5.74783 9.44588 5.64773C9.31221 5.54764 9.19921 5.42036 9.11362 5.27352C9.02803 5.12668 8.97162 4.96329 8.94776 4.79311C8.9239 4.62294 8.93308 4.44948 8.97475 4.2831C9.01642 4.11673 9.08973 3.96085 9.19028 3.82479C9.29084 3.68874 9.41658 3.5753 9.55999 3.49125C9.7034 3.40721 9.86154 3.35429 10.0249 3.33565C10.1883 3.31702 10.3537 3.33306 10.511 3.38281C13.4954 4.25356 16.2847 5.73644 18.7165 7.74523C21.1484 9.75401 23.1743 12.2486 24.6766 15.084C24.834 15.368 24.8794 15.7049 24.8033 16.0233C24.7273 16.3418 24.5356 16.6167 24.2691 16.7897C24.0807 16.9234 23.8607 17.0001 23.6333 17.0115Z" fill="#4C65AD" stroke="#4C65AD"/>
<path d="M12.6786 23.6461C12.459 23.645 12.2437 23.5827 12.0546 23.4658C11.8656 23.349 11.7096 23.1816 11.6027 22.9809C10.006 20.1883 8.95475 17.092 8.50985 13.8712C8.06494 10.6505 8.23524 7.36937 9.01088 4.21799C9.09864 3.8923 9.30463 3.61542 9.58485 3.4465C9.86506 3.27759 10.1973 3.23002 10.5106 3.31396C10.6659 3.35748 10.8114 3.43263 10.9389 3.53509C11.0664 3.63755 11.1733 3.76532 11.2536 3.91109C11.3338 4.05685 11.3858 4.21774 11.4066 4.38455C11.4273 4.55136 11.4164 4.72082 11.3745 4.88322C10.6871 7.70618 10.5435 10.6441 10.9521 13.5257C11.3607 16.4073 12.3133 19.175 13.7545 21.6675C13.9007 21.9626 13.9314 22.3056 13.8402 22.624C13.7489 22.9424 13.5428 23.2111 13.2654 23.3732C13.0999 23.5228 12.8957 23.6177 12.6786 23.6461Z" fill="#4C65AD" stroke="#4C65AD"/>
</svg>
