<svg width="42" height="36" viewBox="0 0 42 36" fill="none" xmlns="http://www.w3.org/2000/svg">
<path d="M20.6191 35.5012H3.17079C2.32984 35.5012 1.52334 35.1718 0.928704 34.5854C0.334067 33.999 3.45992e-06 33.2036 3.45992e-06 32.3743V8.48456C-0.000973031 7.83438 0.204769 7.20026 0.588286 6.6714C0.971804 6.14255 1.5138 5.74557 2.13802 5.53632L17.7745 0.175867C18.2519 0.0114366 18.7621 -0.0386716 19.263 0.0296783C19.7639 0.0980283 20.2412 0.282876 20.6554 0.568967C21.0666 0.859861 21.4013 1.24361 21.6314 1.68813C21.8615 2.13265 21.9804 2.62503 21.9781 3.12411V34.1611C21.9805 34.3378 21.947 34.5131 21.8796 34.6768C21.8122 34.8405 21.7121 34.9891 21.5855 35.1141C21.4588 35.239 21.308 35.3376 21.142 35.4041C20.9761 35.4706 20.7983 35.5036 20.6191 35.5012ZM18.8073 2.67741H18.6623L3.02584 8.03786C2.93803 8.06707 2.86143 8.12213 2.80635 8.19561C2.75127 8.2691 2.72037 8.35748 2.71782 8.44883V32.3743C2.71782 32.4928 2.76554 32.6064 2.85049 32.6902C2.93544 32.7739 3.05065 32.821 3.17079 32.821H19.2602V3.12411C19.2634 3.05427 19.2484 2.98479 19.2167 2.92226C19.1849 2.85972 19.1376 2.8062 19.0791 2.76675C19.0001 2.70987 18.9051 2.67864 18.8073 2.67741Z" fill="#4C65AD"/>
<path d="M38.0495 35.5015H20.6193C20.2589 35.5015 19.9132 35.3603 19.6584 35.109C19.4035 34.8576 19.2604 34.5168 19.2604 34.1614C19.2604 33.8059 19.4035 33.4651 19.6584 33.2137C19.9132 32.9624 20.2589 32.8212 20.6193 32.8212H38.0495C38.1697 32.8212 38.2849 32.7742 38.3698 32.6904C38.4548 32.6066 38.5025 32.493 38.5025 32.3745V18.0799C38.5039 17.9901 38.4767 17.9021 38.4247 17.8284C38.3727 17.7546 38.2985 17.6989 38.2126 17.6689L20.0938 11.4686C19.9142 11.4132 19.7482 11.3215 19.6064 11.1995C19.4646 11.0775 19.35 10.9277 19.2699 10.7597C19.1899 10.5918 19.1461 10.4092 19.1413 10.2236C19.1365 10.0381 19.1709 9.85358 19.2422 9.68181C19.3004 9.50626 19.3947 9.34445 19.5193 9.20655C19.6438 9.06865 19.796 8.95763 19.9661 8.88045C20.1362 8.80327 20.3207 8.7616 20.5079 8.75806C20.6952 8.75452 20.8811 8.78918 21.0541 8.85987L39.1729 15.0423C39.7908 15.2591 40.3259 15.6585 40.7052 16.1861C41.0846 16.7137 41.2898 17.3438 41.2928 17.9906V32.2852C41.3052 32.7094 41.2299 33.1316 41.0716 33.5262C40.9132 33.9207 40.6751 34.2794 40.3717 34.5803C40.0682 34.8812 39.7059 35.118 39.3067 35.2764C38.9075 35.4348 38.4797 35.5113 38.0495 35.5015Z" fill="#4C65AD"/>
<path d="M32.8494 28.3181H27.6674C27.307 28.3181 26.9613 28.1769 26.7065 27.9256C26.4516 27.6743 26.3085 27.3334 26.3085 26.978V21.8499C26.3085 21.4945 26.4516 21.1536 26.7065 20.9023C26.9613 20.651 27.307 20.5098 27.6674 20.5098H32.8494C33.2083 20.5144 33.5512 20.6571 33.8051 20.9074C34.0589 21.1577 34.2036 21.4959 34.2083 21.8499V26.978C34.2036 27.332 34.0589 27.6702 33.8051 27.9205C33.5512 28.1708 33.2083 28.3135 32.8494 28.3181ZM28.9901 25.6379H31.4542V23.2257H28.9901V25.6379Z" fill="#4C65AD"/>
<path d="M8.28018 28.3185C7.91977 28.3185 7.57413 28.1773 7.31928 27.926C7.06444 27.6747 6.92126 27.3338 6.92126 26.9784V12.8089C6.92126 12.4534 7.06444 12.1126 7.31928 11.8613C7.57413 11.6099 7.91977 11.4688 8.28018 11.4688C8.64059 11.4688 8.98623 11.6099 9.24108 11.8613C9.49593 12.1126 9.6391 12.4534 9.6391 12.8089V26.9784C9.63441 27.3323 9.48973 27.6705 9.23589 27.9209C8.98206 28.1712 8.63913 28.3139 8.28018 28.3185Z" fill="#4C65AD"/>
<path d="M13.7158 28.3181C13.3554 28.3181 13.0098 28.1769 12.7549 27.9256C12.5001 27.6743 12.3569 27.3334 12.3569 26.978V11.0218C12.3569 10.6663 12.5001 10.3255 12.7549 10.0741C13.0098 9.82283 13.3554 9.68164 13.7158 9.68164C14.0762 9.68164 14.4219 9.82283 14.6767 10.0741C14.9316 10.3255 15.0747 10.6663 15.0747 11.0218V26.978C15.07 27.332 14.9254 27.6702 14.6715 27.9205C14.4177 28.1708 14.0748 28.3135 13.7158 28.3181Z" fill="#4C65AD"/>
</svg>
