<svg width="37" height="37" viewBox="0 0 37 37" fill="none" xmlns="http://www.w3.org/2000/svg">
<path fill-rule="evenodd" clip-rule="evenodd" d="M18.2917 0C8.14811 0 0 8.14811 0 18.2917C0 28.4352 8.14811 36.5833 18.2917 36.5833C28.4352 36.5833 36.5833 28.4352 36.5833 18.2917C36.5833 8.14811 28.4352 0 18.2917 0ZM18.2917 33.2575C9.97726 33.2575 3.32574 26.606 3.32574 18.2916C3.32574 9.9772 9.97726 3.32568 18.2917 3.32568C26.606 3.32568 33.2576 9.9772 33.2576 18.2916C33.2576 26.606 26.606 33.2575 18.2917 33.2575ZM24.7769 9.64476L14.3007 13.1368C13.8019 13.3031 13.303 13.802 13.1367 14.3008L9.64467 24.9432C9.47838 25.6084 9.64467 26.2735 9.97725 26.6061C10.3098 26.9387 10.6424 27.105 11.1413 27.105C11.3076 27.105 11.4738 27.105 11.6401 26.9387L22.2826 23.4466C22.7814 23.2804 23.114 22.9478 23.2803 22.4489L26.7723 11.8065C26.9386 11.1413 26.7723 10.4762 26.4398 10.1436C26.1072 9.64476 25.442 9.47847 24.7769 9.64476ZM20.4534 20.4534L13.8019 22.6151L15.9636 15.9636L22.6151 13.8019L20.4534 20.4534Z" fill="#4C65AD"/>
</svg>
