<svg width="27" height="27" viewBox="0 0 27 27" fill="none" xmlns="http://www.w3.org/2000/svg">
<path fill-rule="evenodd" clip-rule="evenodd" d="M13.5 0C6.01364 0 0 6.01364 0 13.5C0 20.9864 6.01364 27 13.5 27C20.9864 27 27 20.9864 27 13.5C27 6.01364 20.9864 0 13.5 0ZM13.4999 24.546C7.36356 24.546 2.45447 19.6369 2.45447 13.5005C2.45447 7.36417 7.36356 2.45508 13.4999 2.45508C19.6363 2.45508 24.5454 7.36417 24.5454 13.5005C24.5454 19.6369 19.6363 24.546 13.4999 24.546ZM18.2864 7.11829L10.5546 9.69556C10.1864 9.81829 9.81822 10.1865 9.69549 10.5547L7.11822 18.4092C6.99549 18.9001 7.11822 19.391 7.36367 19.6365C7.60912 19.8819 7.85458 20.0047 8.22276 20.0047C8.34549 20.0047 8.46821 20.0047 8.59094 19.8819L16.4455 17.3046C16.8137 17.1819 17.0591 16.9365 17.1819 16.5683L19.7591 8.71374C19.8819 8.22283 19.7591 7.73192 19.5137 7.48647C19.2682 7.11829 18.7773 6.99556 18.2864 7.11829ZM15.0954 15.0956L10.1863 16.6911L11.7817 11.782L16.6908 10.1865L15.0954 15.0956Z" fill="#505050"/>
</svg>
