<svg width="29" height="29" viewBox="0 0 29 29" fill="none" xmlns="http://www.w3.org/2000/svg">
<path d="M24.4008 2.90039H4.59918C2.06333 2.90039 0 4.96372 0 7.49957V21.5012C0 24.037 2.06333 26.1004 4.59918 26.1004H24.4008C26.9367 26.1004 29 24.037 29 21.5012V7.49957C29 4.96372 26.9367 2.90039 24.4008 2.90039ZM24.2117 5.38614L14.4993 12.927L4.78676 5.38614H24.2117ZM26.5144 21.5012C26.5144 22.6667 25.5665 23.6146 24.401 23.6146H4.59918C3.43362 23.6146 2.48575 22.6667 2.48575 21.5012V7.49957C2.48575 7.26689 2.53269 7.04703 2.60243 6.83748L13.7371 15.4823C13.9613 15.6562 14.2303 15.7433 14.4994 15.7433C14.7685 15.7433 15.0375 15.6562 15.2617 15.4823L26.3977 6.83648C26.4676 7.0462 26.5146 7.26656 26.5146 7.49957V21.5012H26.5144Z" fill="#505050"/>
</svg>
