<svg width="29" height="27" viewBox="0 0 29 27" fill="none" xmlns="http://www.w3.org/2000/svg">
<path d="M14.5922 21.582C14.1538 21.5797 13.7212 21.4823 13.3252 21.2967C12.9292 21.1112 12.5793 20.842 12.3005 20.5083C10.2379 18.0443 6.80029 13.2407 6.80029 8.68577C6.80029 6.64738 7.62123 4.69247 9.0825 3.25111C10.5438 1.80975 12.5257 1 14.5922 1C16.6588 1 18.6407 1.80975 20.102 3.25111C21.5632 4.69247 22.3842 6.64738 22.3842 8.68577C22.3842 13.2068 18.9465 18.0443 16.8954 20.5083C16.6153 20.8435 16.2637 21.1135 15.8655 21.2991C15.4674 21.4848 15.0326 21.5814 14.5922 21.582V21.582ZM14.5922 2.69539C12.9825 2.69838 11.4395 3.33046 10.3012 4.45323C9.16295 5.576 8.52213 7.09794 8.5191 8.68577C8.5191 12.7095 11.7161 17.1401 13.6182 19.4232C13.7387 19.5617 13.8881 19.6729 14.0563 19.7491C14.2244 19.8253 14.4072 19.8648 14.5922 19.8648C14.7772 19.8648 14.9601 19.8253 15.1282 19.7491C15.2963 19.6729 15.4457 19.5617 15.5662 19.4232C17.4684 17.1627 20.6653 12.7095 20.6653 8.68577C20.6623 7.09794 20.0215 5.576 18.8832 4.45323C17.7449 3.33046 16.202 2.69838 14.5922 2.69539V2.69539Z" fill="#505050" stroke="#505050" stroke-width="0.5"/>
<path d="M14.5924 11.6328C14.0099 11.6328 13.441 11.4624 12.9577 11.1439C12.4745 10.8254 12.099 10.3735 11.8775 9.84612C11.656 9.31878 11.5982 8.73891 11.711 8.17955C11.8238 7.62015 12.1024 7.10535 12.5128 6.70063C12.9232 6.29584 13.4469 6.01942 14.018 5.90736C14.5892 5.7953 15.1812 5.85287 15.7188 6.07252C16.2564 6.29215 16.7148 6.66361 17.0367 7.13889C17.3586 7.61408 17.53 8.17202 17.53 8.74219C17.53 9.50659 17.2222 10.2411 16.6721 10.7837C16.1217 11.3266 15.3737 11.6328 14.5924 11.6328ZM14.5924 6.50167C14.1506 6.50167 13.7181 6.63087 13.3496 6.8737C12.9811 7.11658 12.6928 7.46252 12.5223 7.86857C12.3517 8.27469 12.307 8.72198 12.394 9.15358C12.481 9.58513 12.6957 9.98059 13.0097 10.2903C13.3237 10.6 13.7228 10.8101 14.1564 10.8951C14.5899 10.9802 15.0393 10.9366 15.448 10.7696C15.8569 10.6026 16.2074 10.3193 16.4546 9.95444C16.7018 9.58954 16.8341 9.15979 16.8341 8.71958C16.8341 8.42736 16.7758 8.13816 16.6626 7.86857C16.5493 7.59899 16.3836 7.35449 16.1751 7.14886C15.9666 6.94324 15.7195 6.78049 15.448 6.66958C15.1766 6.55867 14.8858 6.50167 14.5924 6.50167Z" fill="#505050" stroke="#505050"/>
<path d="M25.2145 26.6455H3.96995C3.4766 26.6421 2.99176 26.5184 2.55864 26.2854C2.12552 26.0524 1.75757 25.7173 1.48758 25.3099C1.21759 24.9026 1.05395 24.4358 1.01123 23.9509C0.968516 23.4661 1.04806 22.9784 1.24277 22.5313L3.62619 17.1285C3.85784 16.6049 4.23916 16.1593 4.72351 15.8462C5.20786 15.533 5.77424 15.3659 6.35337 15.3652H10.2493V17.0607H6.35337C6.10938 17.061 5.87083 17.1319 5.66719 17.2644C5.46356 17.397 5.30375 17.5855 5.20749 17.8067L2.81261 23.2094C2.73574 23.392 2.70496 23.5902 2.72292 23.7871C2.74089 23.984 2.80706 24.1736 2.91574 24.3397C3.03001 24.5129 3.18624 24.6553 3.3703 24.754C3.55436 24.8526 3.76046 24.9045 3.96995 24.9049H25.2145C25.4239 24.9045 25.63 24.8526 25.8141 24.754C25.9982 24.6553 26.1544 24.5129 26.2687 24.3397C26.3773 24.1736 26.4435 23.984 26.4615 23.7871C26.4794 23.5902 26.4487 23.392 26.3718 23.2094L23.9769 17.8067C23.8807 17.5855 23.7208 17.397 23.5172 17.2644C23.3136 17.1319 23.075 17.061 22.831 17.0607H18.9465V15.3652H22.831C23.4105 15.3644 23.9775 15.531 24.4621 15.8443C24.9467 16.1576 25.3278 16.6041 25.5582 17.1285L27.9416 22.5313C28.1431 22.9765 28.2276 23.4645 28.1876 23.9504C28.1475 24.4363 27.9841 24.9045 27.7125 25.3118C27.4408 25.7209 27.0703 26.057 26.6342 26.2898C26.1982 26.5226 25.7103 26.6449 25.2145 26.6455V26.6455Z" fill="#505050" stroke="#505050" stroke-width="0.5"/>
</svg>
