<svg width="27" height="28" viewBox="0 0 27 28" fill="none" xmlns="http://www.w3.org/2000/svg">
<path d="M14.6308 3.06635C14.631 3.06635 14.631 3.06635 14.6314 3.06635C17.1124 3.06635 19.4451 4.02863 21.1995 5.77575C22.9542 7.52307 23.9206 9.84628 23.9204 12.3173C23.9204 13.1641 24.6096 13.8506 25.4599 13.8506C25.4601 13.8506 25.4601 13.8506 25.4601 13.8506C26.3105 13.8506 26.9999 13.1643 26.9999 12.3175C27.0001 9.02731 25.7135 5.93398 23.3772 3.60749C21.0411 1.281 17.9353 0 14.6314 0C14.6312 0 14.6306 0 14.6304 0C13.78 0 13.0908 0.686498 13.0908 1.53328C13.091 2.37985 13.7804 3.06635 14.6308 3.06635Z" fill="#505050"/>
<path d="M14.5736 8.65646C16.6317 8.65686 18.3063 10.3241 18.3065 12.3731C18.3067 13.1887 18.9705 13.8498 19.7898 13.8496C20.609 13.8496 21.2728 13.1883 21.2726 12.3727C21.272 8.69564 18.2672 5.70372 14.574 5.70312H14.5738C13.7548 5.70312 13.091 6.36408 13.0908 7.1796C13.0908 7.99511 13.7546 8.65646 14.5736 8.65646Z" fill="#505050"/>
<path d="M7.55927 11.273C6.85229 11.7544 6.67095 12.7154 7.15419 13.4193C7.63743 14.1233 8.60268 14.3037 9.30966 13.8225C9.86568 13.444 11.168 12.5574 11.0766 10.785C11.0187 9.72421 10.0578 8.20959 9.26189 7.12571C8.09772 5.53985 7.09443 4.58467 6.28613 4.28858C5.53139 4.00876 4.74212 4.00279 3.93857 4.27128C2.27421 4.82969 1.06579 5.83882 0.444215 7.18954C-0.161027 8.50444 -0.147586 10.0156 0.483296 11.5604C1.97335 15.2004 4.05933 18.3872 6.69721 21.0458C9.35329 23.6585 12.5534 25.7356 16.2103 27.2202C17.0016 27.5408 17.7845 27.7012 18.537 27.7012C19.2586 27.7012 19.9524 27.5537 20.5988 27.2587C21.9552 26.6395 22.9684 25.4364 23.5298 23.7771C23.7987 22.9788 23.7927 22.1933 23.5139 21.4469C23.2145 20.6362 22.2551 19.6374 20.6626 18.4782C19.574 17.6856 18.0529 16.7288 16.9834 16.671C15.2072 16.582 14.3176 17.8765 13.9376 18.4302C13.4541 19.1342 13.6351 20.0951 14.342 20.5767C15.0492 21.0583 16.014 20.878 16.4977 20.174C16.6664 19.9283 16.7628 19.8167 16.818 19.7679C17.6885 20.0457 20.1709 21.8618 20.6178 22.5577C20.6287 22.6022 20.6312 22.6699 20.5899 22.7933C20.3942 23.3717 20.0127 24.1288 19.3066 24.4512C18.6451 24.7526 17.8935 24.5677 17.3802 24.36C14.1034 23.0296 11.2426 21.1755 8.89031 18.8618C6.5535 16.5064 4.69145 13.6578 3.35628 10.3961C3.14702 9.88378 2.96113 9.13491 3.26406 8.47685C3.58767 7.77369 4.3482 7.39359 4.92718 7.19922C5.05084 7.15804 5.11887 7.16031 5.16601 7.17163C5.86513 7.61741 7.68789 10.0878 7.96704 10.9549C7.91783 11.009 7.80596 11.1052 7.55927 11.273Z" fill="#505050"/>
</svg>
